HIERARCHY
ROOT hip
{
  OFFSET -3.37227 68.442 220.542
  CHANNELS 6 Xposition Yposition Zposition Zrotation Xrotation Yrotation
  JOINT abdomen
  {
    OFFSET 0 20.6881 -0.73152
    CHANNELS 3 Zrotation Xrotation Yrotation
    JOINT chest
    {
      OFFSET 0 11.7043 -0.48768
      CHANNELS 3 Zrotation Xrotation Yrotation
      JOINT neck
      {
        OFFSET 0 22.1894 -2.19456
        CHANNELS 3 Zrotation Xrotation Yrotation
        JOINT head
        {
          OFFSET -0.24384 7.07133 1.2192
          CHANNELS 3 Zrotation Xrotation Yrotation
          JOINT leftEye
          {
            OFFSET 4.14528 8.04674 8.04672
            CHANNELS 3 Zrotation Xrotation Yrotation
            End Site
            {
              OFFSET 1 0 0
            }
          }
          JOINT rightEye
          {
            OFFSET -3.6576 8.04674 8.04672
            CHANNELS 3 Zrotation Xrotation Yrotation
            End Site
            {
              OFFSET 1 0 0
            }
          }
        }
      }
      JOINT rCollar
      {
        OFFSET -2.68224 19.2634 -4.8768
        CHANNELS 3 Zrotation Xrotation Yrotation
        JOINT rShldr
        {
          OFFSET -8.77824 -1.95073 1.46304
          CHANNELS 3 Zrotation Xrotation Yrotation
          JOINT rForeArm
          {
            OFFSET -28.1742 -1.7115 0.48768
            CHANNELS 3 Zrotation Xrotation Yrotation
            JOINT rHand
            {
              OFFSET -22.5879 0.773209 7.07136
              CHANNELS 3 Zrotation Xrotation Yrotation
              JOINT rThumb1
              {
                OFFSET -1.2192 -0.487915 3.41376
                CHANNELS 3 Zrotation Xrotation Yrotation
                JOINT rThumb2
                {
                  OFFSET -3.37035 -0.52449 3.41376
                  CHANNELS 3 Zrotation Xrotation Yrotation
                  End Site
                  {
                    OFFSET -1.78271 -1.18214 1.43049
                  }
                }
              }
              JOINT rIndex1
              {
                OFFSET -7.75947 0.938293 5.60832
                CHANNELS 3 Zrotation Xrotation Yrotation
                JOINT rIndex2
                {
                  OFFSET -2.54057 -0.884171 1.56538
                  CHANNELS 3 Zrotation Xrotation Yrotation
                  End Site
                  {
                    OFFSET -1.62519 -0.234802 1.16502
                  }
                }
              }
              JOINT rMid1
              {
                OFFSET -8.24714 1.18213 3.41376
                CHANNELS 3 Zrotation Xrotation Yrotation
                JOINT rMid2
                {
                  OFFSET -3.10165 -0.590103 1.0647
                  CHANNELS 3 Zrotation Xrotation Yrotation
                  End Site
                  {
                    OFFSET -2.48547 -0.328903 0.83742
                  }
                }
              }
              JOINT rRing1
              {
                OFFSET -8.82822 0.546677 1.51678
                CHANNELS 3 Zrotation Xrotation Yrotation
                JOINT rRing2
                {
                  OFFSET -2.60934 -0.819778 -0.0198488
                  CHANNELS 3 Zrotation Xrotation Yrotation
                  End Site
                  {
                    OFFSET -2.33842 -0.294052 0.168128
                  }
                }
              }
              JOINT rPinky1
              {
                OFFSET -8.27202 -0.0477905 -0.4584
                CHANNELS 3 Zrotation Xrotation Yrotation
                JOINT rPinky2
                {
                  OFFSET -1.82734 -0.647385 -0.700984
                  CHANNELS 3 Zrotation Xrotation Yrotation
                  End Site
                  {
                    OFFSET -1.69225 -0.51767 -0.607171
                  }
                }
              }
            }
          }
        }
      }
      JOINT lCollar
      {
        OFFSET 2.68224 19.2634 -4.8768
        CHANNELS 3 Zrotation Xrotation Yrotation
        JOINT lShldr
        {
          OFFSET 8.77824 -1.95073 1.46304
          CHANNELS 3 Zrotation Xrotation Yrotation
          JOINT lForeArm
          {
            OFFSET 28.1742 -1.7115 0.48768
            CHANNELS 3 Zrotation Xrotation Yrotation
            JOINT lHand
            {
              OFFSET 22.5879 0.773209 7.07136
              CHANNELS 3 Zrotation Xrotation Yrotation
              JOINT lThumb1
              {
                OFFSET 1.2192 -0.487915 3.41376
                CHANNELS 3 Zrotation Xrotation Yrotation
                JOINT lThumb2
                {
                  OFFSET 3.37035 -0.52449 3.41376
                  CHANNELS 3 Zrotation Xrotation Yrotation
                  End Site
                  {
                    OFFSET 1.78271 -1.18214 1.43049
                  }
                }
              }
              JOINT lIndex1
              {
                OFFSET 7.75947 0.938293 5.60832
                CHANNELS 3 Zrotation Xrotation Yrotation
                JOINT lIndex2
                {
                  OFFSET 2.54057 -0.884171 1.56538
                  CHANNELS 3 Zrotation Xrotation Yrotation
                  End Site
                  {
                    OFFSET 1.62519 -0.234802 1.16502
                  }
                }
              }
              JOINT lMid1
              {
                OFFSET 8.24714 1.18213 3.41376
                CHANNELS 3 Zrotation Xrotation Yrotation
                JOINT lMid2
                {
                  OFFSET 3.10165 -0.590103 1.0647
                  CHANNELS 3 Zrotation Xrotation Yrotation
                  End Site
                  {
                    OFFSET 2.48547 -0.328903 0.83742
                  }
                }
              }
              JOINT lRing1
              {
                OFFSET 8.82822 0.546677 1.51678
                CHANNELS 3 Zrotation Xrotation Yrotation
                JOINT lRing2
                {
                  OFFSET 2.60934 -0.819778 -0.0198488
                  CHANNELS 3 Zrotation Xrotation Yrotation
                  End Site
                  {
                    OFFSET 2.33842 -0.294052 0.168128
                  }
                }
              }
              JOINT lPinky1
              {
                OFFSET 8.27202 -0.0477905 -0.4584
                CHANNELS 3 Zrotation Xrotation Yrotation
                JOINT lPinky2
                {
                  OFFSET 1.82734 -0.647385 -0.700984
                  CHANNELS 3 Zrotation Xrotation Yrotation
                  End Site
                  {
                    OFFSET 1.69225 -0.51767 -0.607171
                  }
                }
              }
            }
          }
        }
      }
    }
  }
  JOINT rButtock
  {
    OFFSET -8.77824 4.35084 1.2192
    CHANNELS 3 Zrotation Xrotation Yrotation
    JOINT rThigh
    {
      OFFSET 0 -1.70687 -2.19456
      CHANNELS 3 Zrotation Xrotation Yrotation
      JOINT rShin
      {
        OFFSET 0 -36.8199 0.73152
        CHANNELS 3 Zrotation Xrotation Yrotation
        JOINT rFoot
        {
          OFFSET 0.73152 -45.1104 -5.12064
          CHANNELS 3 Zrotation Xrotation Yrotation
          End Site
          {
            OFFSET -1.1221 -3.69964 12.103
          }
        }
      }
    }
  }
  JOINT lButtock
  {
    OFFSET 8.77824 4.35084 1.2192
    CHANNELS 3 Zrotation Xrotation Yrotation
    JOINT lThigh
    {
      OFFSET 0 -1.70687 -2.19456
      CHANNELS 3 Zrotation Xrotation Yrotation
      JOINT lShin
      {
        OFFSET 0 -36.8199 0.73152
        CHANNELS 3 Zrotation Xrotation Yrotation
        JOINT lFoot
        {
          OFFSET -0.73152 -45.1104 -5.12064
          CHANNELS 3 Zrotation Xrotation Yrotation
          End Site
          {
            OFFSET 1.1221 -3.69964 12.103
          }
        }
      }
    }
  }
}
MOTION
Frames:	8
Frame Time:	0.00833333
-2.262 83.6128 82.5868 -2.63323 5.3756 6.10436 3.49009 -2.00397 0.00914621 1.47668 -5.83573 -0.0395323 -2.44952 -6.26175 -1.54577 -3.49172 -2.37051 -2.20221 -0 0 0 -0 0 0 4.10288e-014 1.02965e-013 1.55886e-013 79.9703 21.2882 -6.85313 -19.1044 -11.9256 36.5467 -0.00482785 1.9808 0.278496 -7.20056e-010 1.85012e-009 4.26239e-011 -1.24358e-009 3.19695e-009 7.67693e-011 -7.20051e-010 1.85012e-009 4.26132e-011 7.73091 5.47488 0.417314 -7.20046e-010 1.85011e-009 4.26222e-011 2.90554 0.965183 0.102902 -7.20048e-010 1.85012e-009 4.26199e-011 10.2786 0.731801 0.0259123 -7.20054e-010 1.85012e-009 4.26286e-011 2.22167 -0.733487 -0.20892 4.099e-014 1.02964e-013 1.55645e-013 -88.0329 30.716 12.0027 22.7652 -16.9505 -45.9133 0.0501126 6.37605 -0.899847 -4.54198e-010 -9.16922e-010 -4.64118e-010 -7.88296e-010 -1.58831e-009 -7.98676e-010 -4.542e-010 -9.16927e-010 -4.64105e-010 -7.73091 5.47488 -0.417314 -4.54198e-010 -9.16928e-010 -4.64113e-010 -2.90554 0.965183 -0.102902 -4.54203e-010 -9.16921e-010 -4.64114e-010 -10.2786 0.731801 -0.0259123 -4.54191e-010 -9.16918e-010 -4.64121e-010 -2.22167 -0.733487 0.20892 -2.03217e-016 0 -3.88251e-019 4.98272 -14.6254 1.19459 -0.211555 30.8277 0.462939 -0.905609 -0.269888 -3.31621 2.03217e-016 0 3.88251e-019 -0.388065 -12.463 -4.56872 0.226146 35.8808 -0.558581 0.217972 -1.92677 -5.40176 
-2.21549 83.5978 83.0233 -2.65437 5.67769 6.05404 3.56275 -2.02286 -0.0828317 1.46762 -5.84703 -0.0671285 -2.37316 -6.20825 -1.49513 -3.58512 -2.55299 -2.14079 -0 0 0 -0 0 0 -2.3579e-014 6.72996e-014 1.12854e-013 79.9823 21.3221 -6.65049 -19.2035 -12.042 36.7795 -0.00497252 2.00556 0.28198 -7.58255e-011 3.68945e-010 2.0854e-010 -1.30158e-010 6.36731e-010 3.61834e-010 -7.58187e-011 3.68941e-010 2.08528e-010 7.73091 5.47488 0.417314 -7.58179e-011 3.68932e-010 2.0854e-010 2.90554 0.965183 0.102902 -7.58157e-011 3.6894e-010 2.08538e-010 10.2786 0.731801 0.0259123 -7.5827e-011 3.6894e-010 2.08547e-010 2.22167 -0.733487 -0.20892 -2.36246e-014 6.7296e-014 1.12612e-013 -88.0513 30.693 12.1089 22.6707 -16.7982 -45.6442 0.0547561 6.66527 -0.941027 -1.68634e-010 -4.19755e-010 7.94712e-011 -2.91927e-010 -7.25498e-010 1.38948e-010 -1.68638e-010 -4.19757e-010 7.94831e-011 -7.73091 5.47488 -0.417314 -1.68634e-010 -4.19759e-010 7.94751e-011 -2.90554 0.965183 -0.102902 -1.6864e-010 -4.19755e-010 7.94712e-011 -10.2786 0.731801 -0.0259123 -1.68627e-010 -4.19752e-010 7.9462e-011 -2.22167 -0.733487 0.20892 -2.03217e-016 0 -3.88251e-019 4.98037 -14.6413 1.10534 -0.211998 30.8495 0.464209 -0.905903 -0.312284 -3.29129 2.03217e-016 0 3.88251e-019 -0.389259 -12.4913 -4.64303 0.226081 35.9052 -0.558614 0.22542 -1.80244 -5.45789 
-2.20927 83.5801 83.4326 -2.67958 5.97388 5.99961 3.64338 -2.02697 -0.160173 1.45542 -5.86128 -0.090571 -2.30575 -6.15892 -1.45032 -3.67341 -2.7422 -2.08767 -0 0 0 -0 0 0 -8.62662e-014 1.91057e-014 6.35381e-014 80.0046 21.3674 -6.47701 -19.3128 -12.1712 37.037 -0.00499565 2.00928 0.282505 5.74499e-010 -1.15994e-009 3.73668e-010 9.93802e-010 -2.00595e-009 6.45664e-010 5.74507e-010 -1.15994e-009 3.73653e-010 7.73091 5.47488 0.417314 5.74503e-010 -1.15995e-009 3.7367e-010 2.90554 0.965183 0.102902 5.74509e-010 -1.15994e-009 3.73667e-010 10.2786 0.731801 0.0259123 5.74494e-010 -1.15994e-009 3.73677e-010 2.22167 -0.733487 -0.20892 -8.63254e-014 1.91003e-014 6.3292e-014 -88.0668 30.6491 12.1997 22.5875 -16.6657 -45.4081 0.0585701 6.89061 -0.973152 1.0919e-010 6.94488e-011 6.29461e-010 1.91152e-010 1.23688e-010 1.08745e-009 1.09185e-010 6.94506e-011 6.29472e-010 -7.73091 5.47488 -0.417314 1.09191e-010 6.94477e-011 6.29463e-010 -2.90554 0.965183 -0.102902 1.09184e-010 6.94494e-011 6.29457e-010 -10.2786 0.731801 -0.0259123 1.09197e-010 6.94513e-011 6.29446e-010 -2.22167 -0.733487 0.20892 -2.03217e-016 0 -3.88251e-019 4.98053 -14.6597 1.00557 -0.212611 30.8834 0.465695 -0.906941 -0.361627 -3.2666 2.03217e-016 0 3.88251e-019 -0.389479 -12.5196 -4.70256 0.226165 35.9402 -0.558872 0.234122 -1.68911 -5.49514 
-2.17567 83.5557 83.8573 -2.7054 6.25542 5.92548 3.72668 -2.01025 -0.209407 1.44839 -5.86573 -0.105746 -2.24498 -6.11716 -1.40902 -3.7599 -2.93753 -2.03915 -0 0 0 -0 0 0 -1.14619e-013 -3.717e-014 2.23633e-014 80.0147 21.451 -6.32298 -19.4275 -12.3084 37.3076 -0.00471926 1.96112 0.275726 9.86656e-010 -2.23572e-009 4.25173e-010 1.70634e-009 -3.86578e-009 7.33793e-010 9.86664e-010 -2.23573e-009 4.25157e-010 7.73091 5.47488 0.417314 9.86658e-010 -2.23573e-009 4.25177e-010 2.90554 0.965183 0.102902 9.86666e-010 -2.23573e-009 4.25173e-010 10.2786 0.731801 0.0259123 9.86649e-010 -2.23573e-009 4.25183e-010 2.22167 -0.733487 -0.20892 -1.14687e-013 -3.71756e-014 2.21148e-014 -88.0745 30.6021 12.2523 22.5146 -16.5499 -45.2039 0.0601285 6.97996 -0.985899 2.01345e-010 2.25988e-010 9.77499e-010 3.52249e-010 3.96723e-010 1.68764e-009 2.01339e-010 2.25993e-010 9.77509e-010 -7.73091 5.47488 -0.417314 2.01347e-010 2.2599e-010 9.77499e-010 -2.90554 0.965183 -0.102902 2.01339e-010 2.25989e-010 9.77493e-010 -10.2786 0.731801 -0.0259123 2.01351e-010 2.2599e-010 9.7748e-010 -2.22167 -0.733487 0.20892 -2.03217e-016 0 -3.88251e-019 4.9803 -14.6718 0.911347 -0.213375 30.935 0.467348 -0.907344 -0.418443 -3.22928 2.03217e-016 0 3.88251e-019 -0.381839 -12.5329 -4.71855 0.226438 35.9773 -0.559156 0.244526 -1.56354 -5.53359 
-2.15296 83.5312 84.2876 -2.73864 6.51859 5.82366 3.82421 -1.96806 -0.221914 1.44723 -5.85578 -0.110221 -2.19401 -6.09028 -1.37169 -3.84755 -3.13876 -1.99477 -0 0 0 -0 0 0 -8.5589e-014 -1.35241e-013 -8.46698e-015 80.0055 21.5842 -6.18484 -19.5497 -12.4563 37.5967 -0.00403617 1.83119 0.257443 1.08263e-009 -2.82127e-009 2.71278e-010 1.873e-009 -4.87913e-009 4.68082e-010 1.08263e-009 -2.82127e-009 2.7126e-010 7.73091 5.47488 0.417314 1.08263e-009 -2.82128e-009 2.71279e-010 2.90554 0.965183 0.102902 1.08264e-009 -2.82128e-009 2.71276e-010 10.2786 0.731801 0.0259123 1.08262e-009 -2.82128e-009 2.71283e-010 2.22167 -0.733487 -0.20892 -8.56607e-014 -1.35245e-013 -8.71896e-015 -88.0779 30.5526 12.2642 22.4551 -16.456 -45.0397 0.0583423 6.87932 -0.971537 -7.42654e-011 -3.00124e-010 1.0769e-009 -1.23726e-010 -5.1143e-010 1.85917e-009 -7.42694e-011 -3.00115e-010 1.07691e-009 -7.73091 5.47488 -0.417314 -7.42626e-011 -3.00119e-010 1.0769e-009 -2.90554 0.965183 -0.102902 -7.42708e-011 -3.0012e-010 1.07689e-009 -10.2786 0.731801 -0.0259123 -7.42587e-011 -3.0012e-010 1.07688e-009 -2.22167 -0.733487 0.20892 -2.03217e-016 0 -3.88251e-019 4.98765 -14.6704 0.823104 -0.214182 30.9957 0.468857 -0.906285 -0.474408 -3.17505 2.03217e-016 0 3.88251e-019 -0.355084 -12.5285 -4.67309 0.227005 36.0181 -0.55948 0.257627 -1.41921 -5.57224 
-2.11375 83.5057 84.7317 -2.77822 6.76854 5.70366 3.93448 -1.90464 -0.206555 1.448 -5.83861 -0.106636 -2.15277 -6.07432 -1.33918 -3.93396 -3.34624 -1.95633 -0 0 0 -0 0 0 -2.12654e-014 -2.65847e-013 -3.60981e-014 79.9893 21.7515 -6.06803 -19.6803 -12.6154 37.908 -0.00319579 1.64317 0.230992 9.96976e-010 -3.15154e-009 -7.27753e-012 1.72614e-009 -5.45178e-009 -1.23273e-011 9.9698e-010 -3.15154e-009 -7.29719e-012 7.73091 5.47488 0.417314 9.96974e-010 -3.15154e-009 -7.27969e-012 2.90554 0.965183 0.102902 9.96983e-010 -3.15154e-009 -7.28166e-012 10.2786 0.731801 0.0259123 9.96974e-010 -3.15154e-009 -7.27869e-012 2.22167 -0.733487 -0.20892 -2.13412e-014 -2.65846e-013 -3.63559e-014 -88.0782 30.4924 12.2463 22.4096 -16.3846 -44.9128 0.0542479 6.63874 -0.937239 -5.77862e-010 -1.24791e-009 1.03583e-009 -9.94545e-010 -2.14908e-009 1.78846e-009 -5.77864e-010 -1.2479e-009 1.03584e-009 -7.73091 5.47488 -0.417314 -5.77858e-010 -1.2479e-009 1.03583e-009 -2.90554 0.965183 -0.102902 -5.77866e-010 -1.2479e-009 1.03582e-009 -10.2786 0.731801 -0.0259123 -5.77855e-010 -1.24791e-009 1.03581e-009 -2.22167 -0.733487 0.20892 -2.03217e-016 0 -3.88251e-019 5.00129 -14.6616 0.733566 -0.215079 31.0661 0.470349 -0.904594 -0.532064 -3.11107 2.03217e-016 0 3.88251e-019 -0.316029 -12.5141 -4.58494 0.227815 36.0657 -0.559927 0.272821 -1.26861 -5.60251 
-2.08498 83.4705 85.1587 -2.80886 7.00981 5.57614 4.03252 -1.82728 -0.176079 1.45213 -5.81922 -0.0984794 -2.11409 -6.05585 -1.30986 -4.01447 -3.56019 -1.92353 -0 0 0 -0 0 0 4.30603e-014 -3.60076e-013 -6.01293e-014 79.9718 21.9391 -5.97631 -19.8127 -12.7783 38.2266 -0.0024917 1.44652 0.203336 8.04325e-010 -3.13389e-009 -2.64545e-010 1.39403e-009 -5.42259e-009 -4.55976e-010 8.04327e-010 -3.13388e-009 -2.64567e-010 7.73091 5.47488 0.417314 8.04322e-010 -3.13388e-009 -2.64551e-010 2.90554 0.965183 0.102902 8.0433e-010 -3.13388e-009 -2.64552e-010 10.2786 0.731801 0.0259123 8.04326e-010 -3.13388e-009 -2.64553e-010 2.22167 -0.733487 -0.20892 4.2984e-014 -3.60072e-013 -6.03882e-014 -88.0667 30.4264 12.1964 22.3715 -16.3255 -44.8063 0.0495184 6.34217 -0.89502 -1.00457e-009 -2.02564e-009 8.78202e-010 -1.73293e-009 -3.49366e-009 1.51649e-009 -1.00456e-009 -2.02562e-009 8.78205e-010 -7.73091 5.47488 -0.417314 -1.00456e-009 -2.02563e-009 8.78196e-010 -2.90554 0.965183 -0.102902 -1.00457e-009 -2.02563e-009 8.78198e-010 -10.2786 0.731801 -0.0259123 -1.00456e-009 -2.02563e-009 8.78184e-010 -2.22167 -0.733487 0.20892 -2.03217e-016 0 -3.88251e-019 5.00432 -14.6575 0.647261 -0.216283 31.1646 0.472433 -0.903294 -0.608248 -3.04156 2.03217e-016 0 3.88251e-019 -0.284882 -12.4899 -4.48033 0.228669 36.1143 -0.560408 0.288388 -1.11706 -5.63312 
-2.04419 83.4244 85.6053 -2.81542 7.24694 5.45181 4.09344 -1.74331 -0.143237 1.46103 -5.80259 -0.0892416 -2.07081 -6.0214 -1.28207 -4.08437 -3.78086 -1.8961 -0 0 0 -0 0 0 7.20964e-014 -3.49019e-013 -8.01599e-014 79.9594 22.1331 -5.9135 -19.9411 -12.938 38.5373 -0.00204363 1.29071 0.181429 5.79292e-010 -2.67566e-009 -3.54578e-010 1.00494e-009 -4.6304e-009 -6.11407e-010 5.79292e-010 -2.67565e-009 -3.546e-010 7.73091 5.47488 0.417314 5.79289e-010 -2.67565e-009 -3.54584e-010 2.90554 0.965183 0.102902 5.79296e-010 -2.67565e-009 -3.54585e-010 10.2786 0.731801 0.0259123 5.79295e-010 -2.67565e-009 -3.54587e-010 2.22167 -0.733487 -0.20892 7.20272e-014 -3.49013e-013 -8.04084e-014 -88.0349 30.3594 12.112 22.3343 -16.2678 -44.7031 0.0454571 6.07358 -0.85683 -1.04949e-009 -2.04157e-009 6.27931e-010 -1.8116e-009 -3.5226e-009 1.08425e-009 -1.04949e-009 -2.04155e-009 6.27934e-010 -7.73091 5.47488 -0.417314 -1.04949e-009 -2.04155e-009 6.27924e-010 -2.90554 0.965183 -0.102902 -1.04949e-009 -2.04156e-009 6.27928e-010 -10.2786 0.731801 -0.0259123 -1.04948e-009 -2.04156e-009 6.27915e-010 -2.22167 -0.733487 0.20892 -2.03217e-016 0 -3.88251e-019 4.97982 -14.6699 0.568696 -0.218024 31.31 0.475725 -0.903342 -0.719799 -2.97079 2.03217e-016 0 3.88251e-019 -0.281823 -12.4564 -4.38547 0.229368 36.158 -0.560831 0.302687 -0.969876 -5.67278 
